# xmcd
#
# Track frame offsets:
#	150
#	18040
#	38106
#	52961
#	69419
#	87309
#	104399
#	119244
#	136125
#	154731
#	171061
#	188576
#	208116
#	223947
#	245603
#
# Disc length: 3495 seconds
#
# Revision: 1
# Processed by: cddbd v1.5.1PL2 Copyright (c) Steve Scherf et al.
# Submitted via: audiograbber 1.83.01
#
DISCID=d10da50f
DTITLE=Music Maestro Country Hits Of Today Vol 30 - Mm6386
DYEAR=1900
DGENRE=Karaoke
TTITLE0=Darryl Worley - Have You Forgotten
TTITLE1=Sara Evans - Backseat Of A Greyhound Bus
TTITLE2=Tracy Byrd - Truth About Men
TTITLE3=Mark Chesnutt - I'm In Love With A Married Woman
TTITLE4=Dusty Drake - One Last Time
TTITLE5=Lonestar - My Front Porch Looking In
TTITLE6=Brian Mccomas - 99.9 Percent Sure
TTITLE7=Brad Paisley - Celebrity
TTITLE8=Leanne Rimes - Suddenly
TTITLE9=Amy Dalley - Love's Got An Attitude
TTITLE10=Terri Clark - Three Mississippi
TTITLE11=Trace Adkins - Then They Do
TTITLE12=Trick Pony - Boy Like You
TTITLE13=Emerson Drive - Only God Could Stop Me Loving You
TTITLE14=Vince Gill - Someday
EXTD=
EXTT0=
EXTT1=
EXTT2=
EXTT3=
EXTT4=
EXTT5=
EXTT6=
EXTT7=
EXTT8=
EXTT9=
EXTT10=
EXTT11=
EXTT12=
EXTT13=
EXTT14=
PLAYORDER=
